<?xml version="1.0" encoding="UTF-8"?>
<svg width="14px" height="12px" viewBox="0 0 14 12" version="1.1" xmlns="http://www.w3.org/2000/svg" xmlns:xlink="http://www.w3.org/1999/xlink">
    <title>icon_menu@3x</title>
    <g id="冰甲304钢" stroke="none" stroke-width="1" fill="none" fill-rule="evenodd">
        <path d="M0.75,0.25 L13.25,0.25 C13.6642136,0.25 14,0.585786438 14,1 C14,1.41421356 13.6642136,1.75 13.25,1.75 L0.75,1.75 C0.335786438,1.75 5.07265313e-17,1.41421356 0,1 C-5.07265313e-17,0.585786438 0.335786438,0.25 0.75,0.25 Z M0.75,5.25 L13.25,5.25 C13.6642136,5.25 14,5.58578644 14,6 C14,6.41421356 13.6642136,6.75 13.25,6.75 L0.75,6.75 C0.335786438,6.75 5.07265313e-17,6.41421356 0,6 C-5.07265313e-17,5.58578644 0.335786438,5.25 0.75,5.25 Z M0.75,10.25 L9.25,10.25 C9.66421356,10.25 10,10.5857864 10,11 C10,11.4142136 9.66421356,11.75 9.25,11.75 L0.75,11.75 C0.335786438,11.75 5.07265313e-17,11.4142136 0,11 C-5.07265313e-17,10.5857864 0.335786438,10.25 0.75,10.25 Z" id="icon_menu" fill="#333333"></path>
    </g>
</svg>